<mxfile host="app.diagrams.net" modified="2022-11-21T19:20:30.802Z" agent="5.0 (Windows NT 10.0; Win64; x64) AppleWebKit/537.36 (KHTML, like Gecko) Chrome/107.0.0.0 Safari/537.36 Edg/107.0.1418.52" etag="e8CGcOf9sCUGw8gc27yJ" version="20.5.3" type="github">
  <diagram id="ZjdjIubWv4wjj8XeECO5" name="Page-1">
    <mxGraphModel dx="1363" dy="761" grid="1" gridSize="10" guides="1" tooltips="1" connect="1" arrows="1" fold="1" page="1" pageScale="1" pageWidth="850" pageHeight="1100" math="0" shadow="0">
      <root>
        <mxCell id="0" />
        <mxCell id="1" parent="0" />
        <mxCell id="-POQml4aIYqXx8IzOJX9-6" value="" style="whiteSpace=wrap;html=1;aspect=fixed;strokeColor=#3333FF;" vertex="1" parent="1">
          <mxGeometry x="60" y="320" width="230" height="230" as="geometry" />
        </mxCell>
        <mxCell id="-POQml4aIYqXx8IzOJX9-7" value="" style="shape=image;verticalLabelPosition=bottom;labelBackgroundColor=default;verticalAlign=top;aspect=fixed;imageAspect=0;image=data:image/jpeg,/9j/4AAQSkZJRgABAQAAAQABAAD/2wCEAAkGBxETEA8TEA4RExUTFxUXEhIXFxAdEBERFRIYGhUVExkZHSgsGx4lHRkZITQiJikrLi4uGB81OD8tNy8tOisBCgoKDg0OGxAQGy0mICYtNy8rKzctLS0tLTc1LS0yMC8vLS8tLS8vLy81LS0tLS0tLS0tLS0tLS0tLS0rLS0tLf/AABEIAJ4BPwMBIgACEQEDEQH/xAAcAAEAAQUBAQAAAAAAAAAAAAAABwECAwQGBQj/xABGEAABAwEDBwcIBwcEAwAAAAABAAIDEQQhMQUGBxJBYXETIjJRgZGxFFNicoKSodEWQlJUs8HCIyQlM0NzomPS4fFEk7L/xAAbAQEBAAMBAQEAAAAAAAAAAAAABQMEBgIBB//EADQRAAECAwQIBQMFAQEAAAAAAAEAAwIEEQUhMUESE1FxkbHB8GGBodHhIzJSFCIzQvEkcv/aAAwDAQACEQMRAD8ArVKrFVKrsqr83ostUqsVUqlUostUqsVUqlUostUqsVUqlUostUqsVUqlUostUqsVUqlUostUqsVUqlUostUqsVUqlUostUqsVUqlUostUqsVUqlUostUqsVUqlUostUqsVUqlUostUqsVUqlUostUqsVUqlUostUqsVUqlUostUqsVUqlUostUqsVUqlUostUqsVUqlUostUqsVVc0EkAAkm4AYknABKpRZGgkgAEk3ADEk4AKRM1s2RC0STtBkcLmmhEYOzed/ZxpmnmwIAJZgDKei3ZED+e/YusUKentP6bZuzO3458+qsuytX9V4fuyGzf48uUD1SqsqlVbquaor6pVWVWzY7DNKaRQvk69VriBxIwQkAVK+wwGI0F5WGqVXvwZl252MLW+s9ngCVsHMO2f6fvFYDNsjGMcQtqGz5mIVDcXCi5iqVXvTZm25v9AO3tfH4Egry7XkueKvKwyMA2kODe/Be4Hm4/tiB8x7rE5KvN3xwEbwR64LVqlVjqq1WRYKK+qVVlUqlV9or6pVWtqSALycBtJ3LY8gm8y/3T8kJAX0QRRYBYapVZvIJvMv90/JPIJvMv90/JfNKHavWpj2HgVhqlUkY5po5paeogg/FWVX2q8GGivqlVZVXxsLjRoJPUASfglU0UqlVl8il8y/uf8k8im8y/uf8l80htXrVR7DwWKqVWXyKXzL+5/yVfIpfNP7nfJNIbU1Uew8FhqlVWSJzek0jiCPFYtZel4IpcVkqlVZVKr5VfaK+qVVlUqlUor6pVWVSqVSivqlVZVKpVKK+qVVlVc0EkAAkm4AYknABF8or2gkgAEk3ADEk4AKSc0c1xABLMAZT0W7Igfz37FTNDNYQASzAGU9FuyIH9W/YuuUSentOrbZuzO3458+osyzNVR10fuyGz55b8CIilK4oBqtnJ9hknkbHEwucdgwA2knYN61o2lxDWgkuIAAxJJoAFMWa+Q22WENoDI4Ayv63fZB+yP8Anaulm5oMQ1xJwXHSEiZmOhuhGJ6Du5eZkHMmCIB04EsnbyTTuG3t7gurjYGgBoAAwAAAA3BZEXPOuxumsZqusZYbZh0WxQd55+aIiLGsqIiIi8fKGbtlmrykDan6zea6vWS2le2q4zOPMrkWPlimBY0Vcx9A+mAoRcSTQUoFJajbSRlvXkFmYebHR0lNslLm9gNeJ3LfkXHi4IIYrs8xTceCmWk1LhoxxwiuWRrvHFcVVKq2qpVdCuSour0e5P5W1B5F0I1j1axuaO+p7FKy5XR/k3krI1xHOmOsevUwYOFOd7S6pc3Pu6x40wFy7GzGCzLgHE3nzw4CiIiLTVCpXA6Tsn3RWgDo1Y/galp/+u8KP6qbMuWAT2eaLa4c3c8XtPeAoRN1xuO0bQVfs13Sa0T/AF5HDquWtljReDg/tzGPTzqrqrpdHx/fouD/AMMrmKrptHh/fouD/wAMramf4Y9x5LSkB/0t/wDoc1LSIi5ZdtUoiIiVKLUnsEL/AOZDG/1mNPiFtoguNQvhvuK5fKOZNkkqWtdE7raTq13tdUU4UXE5fzUtFmBcKSxj+o0Hmj0h9XjeN6l5UW4zPvNnGo2H3xU+Ysxh4YaJ2jqM+fioCqlV1mfWbggcJoW0ieaOaMI3nq6gfgbupcjVX2XoXYBHCuWmJeNhwwR481dVKq2qVWVYKK6qVVtVVoJIABJNwAxJOACJRXtBJAAJJuAGJJwAUmZnZqCACWYAynot2RA/q37FTM3NQQASzgGU9FuyIH89+xdiok9O6VW2zdmdvxz59LZtm6v6rovyGz55b8CIilK2iIiIok0d2ISW0FwuiDn7ta5rfi6vsqW1GmikjlbT16je7XNfyUlrftKIl8jYAptkwCGWBGZJ9adEWOSQAEuIAAJJOAAxJWRa1sswkjkjdWj2uaaY0c0g071oKiVwuVtIlHEWWIOAwkfrc7eGgig4nsC8waQrZ9mHhqup4rxcu5Bnsry2VtWk82Qfy3jjsO43ryarpG5SWMIMMII2497vRco7PTYjIiiIOzCne31XdWbSRMP5lmjf6pe0/HWXQ5Lz5sktA4uid6QOpX1hh20USVSq8x2exELhTd7L03akzAbzpDx9xfzU25fy0yCyumDmuqKRUNQ97ujSmIxJ3AqGJZXOc5ziS5xJcTiXE1JPasfKnV1dY6ta6tTq1OJp1q2q9SsrCwCK1JzWOdnIpki6gGXjmVfVbeSbEZ54oW4yECvU36zuwVPYtGq7vRdk7WkltDhcwarDs13XvI3htB7SyzDuqbMezDfksUpL656GDLPdifZSPFGGta1ooGgBo2AAUAWREXLLs0RYXTtD2sLhrODnNbtLWlocRw1h3rMiIodz7yfyNtkoObLz2e0TUe8D2EKYlxekzJ2vZmygXwuv9SSgP+Wr8VuyDug8AcDd7KfabOtlzTEX+/oovqun0dn9/i4P/DK5aq6bRyf3+Hg/8Iq5M/wx7jyXOyQ/6IN45qYERFyy7JFHL9JMgJHkjbiR03bPZUjL58lPOdxPiqVnMNu6WmK0pt8VJtWZdZEGrNK1rcPDaCpCs+koV/aWQgbS14J7i0eK63I2WoLSwuhfWnSabnM9YfmLlBtV6ubGUHQWuB7TS9oeNjo3EBwPZfxAW2/ZzRhJbFD6eq0pW1HhGA7eD4AEcFOKIihLo1pZXsLZ4JYnYPbQbnYtd2Gh7FBTgQSCKEXEdRGK+glBmcserbbU3qkfTgXkjxVeyoz+6HzUO2mwRBH5dffivPqlVZVVaCSAASTcAMSTgArC5+ivaCSAASTcAMSTgApQzMzSEAE07QZj0W7Igf1b9ipmVmkIA2adoMx6LdkQP5+C7NRJ2e06ttm7M99nn0dnWdq/qufdkNnzy34ERFLVlERERERERQ9o5t4jtrWuNBMHM3axIc3vLae0phXzqyQgggkEEEEYgjAgqZMz85mWuIBxDZmj9oz7Q+23cdvUeyta02DXWjcffpwUWyZgaJZO8eO0df8AF0yIikq0sU0TXNLXtDmm4tIBaR1EHFcrlbMGyy6xiLoXHa29ld7T4AhdeiyNuxtmsBosTrLbopGAe+8FEOU8wbZFUxhs7fQNH03td4AlcxPC9ji2RjmOGLXAhw4gr6FWjlHJkM7dWeJkg2VF7fVIvad4KoNWpGP5BXdce+CmPWQ2b2zTwN491AlUqu4zlzAfGHSWQue0XmI3yNHo06Y3Y8VwlVWaegdh0oCor8u4zFoxj53K6qnDNLJvk9khjIo4jXk69d95B4XN7FFWZmTfKLZC0irWnXk6tRl9DuJo32lN6mWo7g2N56dfRV7HYoInTuHX24oiLDaJ2sY97zRrGlzj1NaKk9ykK2uBy/l/UyxZxrcyGjH9X7Qc89gcO1qkRfPVutTpZJJHYvLnHi4k0+KnDNrKHL2SCUmpc0B/9xvNf8QVTn2NXBBTIUPPnVSrOmdbG4DmajdhyAXqrWttlbLHJG/oyNLTwcKLZRTNyq718+WuB0ckkb+kxzmu4tNDRdDo4P8AEIeD/wAIrY0n5N5O1tlA5s7an+4ygd8NU961dHB/iMPqv/Dcujjc1ssY9sJ5XrlWmdTOCDZEOdymRERc4uqRfPM55zuJ8V9DKKpNG9qJJ5az3knGTr9RU7Oebb0tM0w6qTaku48INAVpXouLqvTzasbprXZ4wK1c0u3MaauPcD8F1Fm0ZTEjlbTE0bdRrnH46q7PIGbsFkaRE0lzuk917nbtw3D4rbftBqGEiA1PotGWst0xguCgXtoiKCukRQXnXLrW61kecePdcR+Smu3WpsUUkj+jG0uPBorcoBkkdI8uN7nuJNMS5x2DiVWsqE1ii8uqi2zGNCCHxr06qjQSQACSbgBiScAFKeZOaIgDZp2gzHot2Qg/q8FTMjNAQBs07QZj0W7IQf1eC7ZeZ2d06ttm7M99nn6s+z9X9RzHIbPnlyIiKWrCIiIiIiIiIiIi+cqrJZrQ+N7XxvcxzTVrgSHA7lgqlV1xFVxQuvUl5vaRW0DLa2h88wXHe9gw4trwC7uxW2KZofDIyRp+s0gjgaYHcvnmqz2S2SRO14pHsd9priDwu2Ka/ZsEV8BofT48lVYtRyG5waXjn8r6JRRDk3SLa46CUMnG8asnvNu72ldhkjP6xzENe4wuP26cnXc8XAb3UU52SebvpUeF6qNT7Dlwiodhu+PVdcitY4EAg1BwOwhXLUW4ijTSXm21v73C24kCdowLnGgf2m47yD1qS1p5TsgmhliOEjXN4VFAezFZ5d4tOCIee5YJliF5swHy8DkuO0VZN1YZbQ4XynVZ/bZiRxdUewF3q0sk2FsEEULcI2htesgXntNT2rdXl9zWORR7T/i+y7Qaahg2D/UXJ6R8o8lYXtBo6ZwYPV6T+ygI9pdYo/0j5GtlokhMEOvHG04Obra7jzuaSK3BuFdqySghL0OkaDFeJyKIMxaAJNKXKMaqTNE+UKxzwE9Bwe31XCjgOBAPtLhnZuW4Gnkdo/8AXKR3gLqswsg26G1slfA5kZa5shcWA6pFRRta9INOGxWJ0wRsxAkeF6hyMDrb8J0TTA3HNSiiIueXSrl9IOTeWsUhA50X7RvBvT/xJPYFwGjg/wASg4P/AAnKZHtBBBFQbiNhBUUZq5PNny3yJ+oZQ3rLDE4sJ9khUpR2rDjZyBPpf04qXONUmGnBmQDxu68FLSIimqoiIiIiIiIiLVtttiiaXzSMjb9pxAHAVxO5R/nLpB1gYrAHc64zEHWv2Rtxqes39QwKzMy7jxpAPPJYH5htgVjPlnwV2krOEGljhOsagykX315sY6zWhPADrXo5j5niANntDQZjexpwhB/V4KmZGaHI0tFpFZ3Xhpv5Ku09bj17F3C2HnxBBqGjdmdvx3v12Zcxua94X5D8fnvcREWit9ERERERERERERERERfNtVuZMydNaJOThYXu1S6gp0W4m/sHaFpVUuaMMi8lZjO8c+ehHWIh0e/pcNVdNNP6lvSzyXLScvr3NE4YlRRPE5ji17HMc25zXAhzTvBwWOqn/K+RLPaW0tELX0wdeHt9VwvHCq4y36L2E1gtTmj7MjQ7/JpHgVrNWk1F99x9O/JbL1luw/ZeOB9vVRnVKrt3aMbXW6ezkbzKD3ahWay6Lpyf2tpiYPQD3H4hq2P1rA/sPX2Wv+gmPx9R7r0tEttldHaI3EmOMsLK/UL9bWaN1wNNl/WpDXl5CyNFZIRFCDStXOPTe44ucexeooEw4HHYo4cD36roZZuJtqGCI1I79EREWFZ0REREREREREREREREXMZTybTKthtAwc2WN/rCJ7md41vdC6dWFoNKjC8bjQi7sJXuCMwGo2EcRReI4BGADtB4GqvREXhe0UQSaRraHEUiuJ+oev1lL6+bpDzncT4qnZzUDmlpgHDqpdpvONiDQJFa9F17tI1u/wBIex8ytG057ZQfUG1OaDsY1jacCBX4rnKqrQSQACSbgBiScAFUEs0DdAOAUgzT8WMZ4rNNPJK+r3vkebquLnPPUKmpKlPMXM4QBs9oaDMb2MOEQO0+n4KmYmZogDZ7Q0GY3sYcIgdp9PwXdKXOzul9NvDM9B4d4KtIyOgda792Q2eJ8eW9ERFMVVERERERERERERERERERERQDmtkg2q1RQ36pOtIfsxN6XfcBvcFPcbA0ANAAAAAGAAwAXz3kbLU9lk5Szv1Tg4UBa9ta0cD/ANqRsiaTIXgNtTDE7a9gc6M76dJvDncVYtBh5yIGEVAGGfBRrOeZbhMMRpEeHHvFSCi0bBlOCcVgnjk69VzSRxGztW8o5uNCrINRUIiIiIiLn8tZ32OzAh82u8f0o6Okr1Glze0heoYIozSEVXmOOGAViNAugRRtkHPnl7Y59okbZ4WNdycZPSkJaAXn6xprdQHxXW/S2wffYe8rK5LOQGhHVY25huMaQK9xF4X0usH3yLvPyVkmeNgAJ8rYaAmg1qmgwF2K8apz8TwK96yD8hxC53PXPeWy2oRQNY4MaDKHAmr3XgXEUo2h9pYLNpUb/VsbhvY8GvYQKd6jrKNtdNNLK/pSOc47tY1oNww7FrVVyCQZ0AIhftvUCO0HtMmE3ZBS6NKNk8zaO6P/AHLVtOlOIfyrI93rva3wDlFlUqvgs9jYeK+m0nzs4KUs2M/ZrTbY4pI42RyBwaG62sHhusNZxN+BFwGKkVfOOTrYYpopW4xua8Dr1XA07aUU4fTDJ/3yP/L5LRnpXQiBbhupl3uW/ITJjhOsivBz73r3kXhfS+wffIvj8k+l9g++RfH5LS1Tn4ngt/WQbRxC91F4X0usH3yLvPyT6XWD75F3n5JqnPxPBNZB+Q4he6vmtxvKnj6XWD77F3lQK0EkAAkm4AYknYFVsyCKHTqNnVSLViEWhQ7eiuaCSAASTcAMSTgApZzDzMEAbPaGgzG9jDhEDtPp+CpmFmYIA2e0tBmN7GHCIHafT8F3iwzs7pfTbwzO3v13Y5ZGR0PqOY5DZ88uRERTFVREREREREREREREREREREREREXzQitRdauPVzXUIIuIwO0HcvVsuc1tj6FtmG4vc5o4B1QvIReYoRFdEKr3DHFD9pIXSsz7ykP/ADD7kB8WKj8+cpHG2O7GRDwaubRY/wBO1+EPAeyyfqHvzi4n3XoW3LdqlBEtqleDi0vfqe7WnwWgqIsoAAoFiiiMRrEaq5UVEX1eaKqqrURKK5FaiIrkVqIiuVFRESiqioiJRVRUVWgkgAVJuAGJPUESiq0EkAAkm4AYknABS1mFmWIA20WloMxvYw4Qg7T6fgmYWZYgDbRaWgzG9jDhCDtPp+C71RZ2d0vptm7M7e/XnckZHQ+o4L8hsRERTFUREREREREREREREREREREREREREREXzKioi61ciqoqIiKqKiIiqioiIqoqIiKqKiIiqioiIqoqIiKqKiIiqioiIr2ipAAqTcAMSeoKWswcyhAG2i0trMb44zhCDtPp+HFYNGuakbY2WyWj3uvib9WMYa1+LvBSKo09OVJag8/bvljakZMQgOR45eHfd+BERS1UREREREREREREREREREREREREREREREREX//Z;" vertex="1" parent="1">
          <mxGeometry x="80.00000000000003" y="340" width="60.57" height="30" as="geometry" />
        </mxCell>
        <mxCell id="-POQml4aIYqXx8IzOJX9-11" value="" style="rounded=1;whiteSpace=wrap;html=1;strokeColor=#3333FF;align=center;fillColor=#D4E1F5;" vertex="1" parent="1">
          <mxGeometry x="115" y="570" width="120" height="110" as="geometry" />
        </mxCell>
        <mxCell id="-POQml4aIYqXx8IzOJX9-12" value="Datos&#xa;Maestros" style="shape=image;verticalLabelPosition=bottom;verticalAlign=top;imageAspect=0;aspect=fixed;image=data:image/svg+xml,PHN2ZyB4bWxucz0iaHR0cDovL3d3dy53My5vcmcvMjAwMC9zdmciIGlkPSJtb25nb0RCIiB2aWV3Qm94PSI5Ljk5OTk2MTg1MzAyNzM0NCAzLjk4NDgxMjk3NDkyOTgwOTYgMzYuMDAwMDM4MTQ2OTcyNjU2IDQ4LjAzMDM3MjYxOTYyODkwNiIgd2lkdGg9IjM2LjAwMDAzODE0Njk3MjY1NiIgaGVpZ2h0PSI0OC4wMzAzNzI2MTk2Mjg5MDYiPjxkZWZzPjxzdHlsZT4uY2xzLTF7ZmlsbDojMDUzYjcwO30uY2xzLTJ7ZmlsbDojMGE2ZWQxO308L3N0eWxlPjwvZGVmcz48dGl0bGU+bW9uZ29kYjwvdGl0bGU+PHBhdGggY2xhc3M9ImNscy0xIiBkPSJNNDQuNiw4LjhBMTAuMzEzLDEwLjMxMywwLDAsMCw0MC44Nyw2LjIsMzIuOTEyLDMyLjkxMiwwLDAsMCwyOCw0LDMyLjkxMiwzMi45MTIsMCwwLDAsMTUuMTMsNi4yLDEwLjMxMywxMC4zMTMsMCwwLDAsMTEuNCw4LjgsNS4yMDYsNS4yMDYsMCwwLDAsMTAsMTIuM1Y0My42YTUuMDI2LDUuMDI2LDAsMCwwLDEuNCwzLjUsMTAuMzEzLDEwLjMxMywwLDAsMCwzLjczMSwyLjZDMTguMyw1MS4yLDIyLjc3Nyw1MiwyOCw1MmEzMi45MTIsMzIuOTEyLDAsMCwwLDEyLjg3LTIuMkExMC4zMTMsMTAuMzEzLDAsMCwwLDQ0LjYsNDcuMiw1LjQsNS40LDAsMCwwLDQ2LDQzLjdWMTIuM0E1LjIwNiw1LjIwNiwwLDAsMCw0NC42LDguOFpNNDMuMDE2LDQzLjdjMCwxLjItMS40LDIuNC0zLjgyNCwzLjNBMzIuMiwzMi4yLDAsMCwxLDI4LDQ4LjcsMzIuMiwzMi4yLDAsMCwxLDE2LjgwOCw0N2MtMi4zMzEtLjktMy43My0yLjItMy43My0zLjNWMzguMmExNy4xNDEsMTcuMTQxLDAsMCwwLDUuNSwyLjRBMzcuODQ0LDM3Ljg0NCwwLDAsMCwyOCw0MS43YTM5LjE4MSwzOS4xODEsMCwwLDAsOS41MTMtMS4xLDE2LjgyMSwxNi44MjEsMCwwLDAsNS42LTIuNHY1LjVabTAtMTAuNWMwLDEuMi0xLjQsMi40LTMuODI0LDMuM0EzMi4yLDMyLjIsMCwwLDEsMjgsMzguMmEzMi4yLDMyLjIsMCwwLDEtMTEuMTkyLTEuN2MtMi4zMzEtLjktMy43My0yLjItMy43My0zLjNWMjcuOGExNy4xNDIsMTcuMTQyLDAsMCwwLDUuNSwyLjMsMzguMTMxLDM4LjEzMSwwLDAsMCw5LjQyLDFjNi41MjgsMCwxMS45MzgtMS4yLDE1LjAxNi0zLjRaTTM5LjE5MiwxNS43QTMyLjIsMzIuMiwwLDAsMSwyOCwxNy40YTMyLjIsMzIuMiwwLDAsMS0xMS4xOTItMS43Yy0yLjMzMS0xLTMuNzMtMi4yLTMuNzMtMy40LDAtMi4xLDUuMjIzLTUsMTQuOTIyLTUsOS43OTMsMCwxNS4wMTYsMi45LDE1LjAxNiw1QzQzLjAxNiwxMy41LDQxLjYxNywxNC43LDM5LjE5MiwxNS43WiIvPjxwYXRoIGNsYXNzPSJjbHMtMiIgZD0iTTQyLjk2OSwxMi4zYzAsMS4yLTEuNCwyLjQtMy44MjQsMy40YTMyLjIsMzIuMiwwLDAsMS0xMS4xOTIsMS43LDMyLjIsMzIuMiwwLDAsMS0xMS4xOTEtMS43Yy0yLjMzMi0xLTMuNzMxLTIuMi0zLjczMS0zLjRWMjcuOGExNy4xMzgsMTcuMTM4LDAsMCwwLDUuNSwyLjMsMzguMTE3LDM4LjExNywwLDAsMCw5LjQxOSwxYzYuNTI5LDAsMTEuOTM4LTEuMiwxNS4wMTYtMy40WiIvPjwvc3ZnPg==;strokeColor=#3333FF;" vertex="1" parent="1">
          <mxGeometry x="157" y="411" width="36" height="48" as="geometry" />
        </mxCell>
        <mxCell id="-POQml4aIYqXx8IzOJX9-14" value="" style="whiteSpace=wrap;html=1;aspect=fixed;strokeColor=#66CC00;" vertex="1" parent="1">
          <mxGeometry x="560" y="320" width="230" height="230" as="geometry" />
        </mxCell>
        <mxCell id="-POQml4aIYqXx8IzOJX9-15" value="" style="shape=image;verticalLabelPosition=bottom;labelBackgroundColor=default;verticalAlign=top;aspect=fixed;imageAspect=0;image=data:image/png,iVBORw0KGgoAAAANSUhEUgAAAbEAAAB0CAMAAAA8XPwwAAAA/FBMVEX///8hMTwQqlASkk8UKDQeLzoAGCgXKjYAECMAFSYRJjMAGyoAHiwAGSkcLTkSkE8ADSG4xMIKIjDq6+x3foPO0NL3+Pjv8PDAw8UAoztnb3V+hImSl5vd3+AQp1Df4eJeZm0ABh6boKQuPEYAiz+GjJCqrrG6vb/Fx8nU1tcApkVVXmWmqq1udXtFUFgAjEM4RU4RoFCw3L4AABbU7NwRmU/A3cvm9Oucya0AAADJ4tMAABcAAA8nq1x2tpCa1K07n2aKwZ+s0rvh7+ZbvX1crHyDypphvoFzxI5Gomy82siTxaZosYW138JIt3BapHtvqomCr5invbSbvqudw+CbAAATUElEQVR4nO1dC5ejNpaGKp4CMzS2cQXjGOwC2+VHeTs9ySbdvelMMpudRzKzm///Xxb0sJF0hV2TzNiu4TsnpyuYh9Cn+9C9V0LTOnTocCm8vXQDOrwQH7+6dAs6vAyf/delW9DhRfj26bETslvCu8/unv966UZ0OB/vnu7u7h+/v3QzOpyLnz67u7v7/f2nS7ejw5l4WxNWMfb83aVb0uEsfIsJqxi7f/zDpdvS4QxQwmrG7h//fOnWdDgJRhhm7P7xy0u3p8MJvGWEEcbuH7+5dIs6tOKbA2F3/3FPKHt36TZ1aMFXR8IYY9207Krx+Z3M2P1zfOlmdVDhhyeIsfvfXbpdHRR42ySswdjzHy/dsg4gmkaMY+z+8T8v3bYOED7eqRjrvI+rxLdPasbu7y/dug4SBJ0oMPbcZaSvDj88tTHWTaSvDu9EERMY61z8a8NHkTCRsefOX7wqfCmJmMjY/eOl29ihCVnE7j4XGOsy0teEb2QRkxi7f+zii9eDn2XCZMY6IbseSHMxkLFOyK4H/y3OxWDGOnfxagARBjDWxaquBT+dy1hXp3Ml+BEiDJSxLlF2HYD8Dpixbr3LVQBWinef/05mrPM9rgL/cz5j3eKJqwDIl4KxTi1eAb6HzRjMWKcWayDfnO/W6yypkGXr9W4/1w0U+V7P8vVdUpQTxYXLXbYdF0WRVqj+KcbjwXZb32VbzBbTcx//FlaKMGP3f/qNXvqWkUa6aQaBzRAEZmCapo5hBjbyXScroQCRadiGgRowDAPfoubbicars57/44sY6yJVWvy1H9mUH4rArns+aBy0/XArSdrDB2QHuhImcnbncKYwYwrGnrv1SfFwkSa2axx62rB2yWCwzXZ66ProQIkRJn3+yn5ZJPPQPxCLnNB1QsfyD/cK8uLk88EocAtjXYkOwXTrM3FKGkcXxdxBB87yDXDlAlHKUIoV1mhVDvwDjb3tqSe/UyhFBWNdbPGAAWXGEjTZpHAPnFkZcOHSIz86o+Ox0mbXWLMTz1U5HirGOv+eYeqSLnYlexWPQ6Yb0R4w/I7MmKZlEb0k78tXNAFmWloY6wzZASFlDHDLJ3MmMsZe/lUnKjDkycyoNUPj9sf+8DLP4/75L7/iHV8XHDVjmpYwM2fspN/mRAIdnrGY2TKv/bEqwpSMdVvpMFBOXFiLjam10n1JZvYmxJg2i1RqloNKKSo9j0//8Bu+NqBWxrQtM0zhUvhlT2TMFRjrU6H1F21PjVXOvZKxzllkMKioqDyFnU0nWabwA2XMEi+gbr9ftj1Vrt4+xVhXacpgn2Bs5DK9KDjslLGeeMHaPoexF2vFLk7FQKNSvJPexIZaOjPij1PGJA8jIYx5D21P/VLJ2J2KsW71H4V5ijFNp9MyQWqo5+GLp2eEsVB9Q02ZgG5jrFuXRHGasZIKWcB7+CrGyPFAng40oQx5dDJ2EqcZY1M2PeRsnYKxOCf3E11LHr8xY8v08PhFkSSF4KeOFuPqYHkiDFOdt9wUg2SQtmf5hgnrq+ks2e+ztD1VES9ngywZz5YnDXE8xI9XZyYJzmBsYEBqkTImWDdtgSXSyNob18IYTJhaK44WA8+dk7+HSe4j20ae23CThhk56OdZGxPTdB56ETJshHzHTOH+iB/GyAqJiV7sw8gOAhs5ezVn5Tr3IqN6euTlu2O6sS8Fkfqzfc4e7/pFS0tPeh6a9kCn0WjQPDqHGcMOiW2eGFAtdkzFGCRj08V4HvqGHqzr/1vtXDoVqRwfppWH++NB+73SgR3uQmSaNsv8mZGcMZouiqpTq9lQb1hfMLcOKangPRz4HhWObxu+H5EZT+Dn681yMlktBmHInznJ8iioHk89dxPlibIHz2BsRNWiyQ0MmLGinnEjvdXt0H4bxjY4k4dbYW+r4b/Nm4lWEgqNk5DLvuYwZf21Y+uGM8+Stc9yFpHRlJxFI21Yh3O2/H2dFLjrJkS64Y3LRTnwaSDCjjzLtXyDd7yrptu67ZrV4w2W5kKuytk+gzF2ju42D9K4IuLOHFsVsU52UmWr52PnMxY0cnhjbVn1Z+S5rscSd1FS9bOFqvEa+dFBzHLIRizC6vdwSzTRpAjJ2UHe6LOvD8+qumE0DVCds2/k4nPZbmfVTNZnicKZozfBqauVj+qUFhkg/dQjjzJzRcbKPoMxOsXiT6KMRdNRjAmK+8u0zo/Z89aZGME/wJg8CpYDhw5dcz52ULibDafTZcGS4W45cMzKyBRlOUuY5ARAFmKW65yrNNrR2+bDw7HhOoxYvhalrml7zi5Jdg4LfAeBeNd1dRN0zOyuGGUVzabRTEYt8uoe4VH448Sij4cVwjmMFSz42ByglDHddVzXqkCHd7A/p5xKHVdUMfYM3iZlChsxEanfmHZ4ZfGdMT0aFyxJIQnDpk44hcPmIZqaN5u9Em8Qi7GiIEzo+QubjmZP8E8Lr25V48CC8GAne8tPGn20zPHoal6b0jhTDno0xhmMsXg8l6ieK8pzAtcoTvrR6ti9ijFFJHjaIw+dN5vGknR+1nirBaHMEAsahnWPIcHPyMgYtdfc0YL2g9EclTsDOnVa3zXirNsOd5jHDY1KC9bjxc74gwUdMTr0yucwxubQPGNUHxhRBYSMYxFWNeDFch4JwJr1dsZU61twGNM0uGMxcW4NPkOUkv52oA4Qc0bMdAvmfw5FB+ZQ2mlriP1F5z2RYJ1wpD0U9RJhV4rlHhv8KxgzBrMKaTFY25Ury0gzwtZAsLLqXsmYspgK21hjwB9MEdQ5hAUhcYd5lARPeyCKSSCHdKSQSBqSU62m8JA4Ak9iHOpyU7GulANEU1IaIMZyMV7CGG/H8IWmfTzSXyRH980dSLdpQj2FVjCm2gN/WzOGhIdNcCeKRwmPfH/HLsBBDRroDjl+14E0cA89wcUXllhZI+G8QNae+FpxaFVIiK6F4ulnMUb1N5eS0SXGtHrOGDLl6LdSpnYWFa6ianNurH5EbjTcYNE6DD1Z8shgBPK5RIcJpghmbIxHAmqeiS2/oKtJjJxnjMinaNsqrIjgysL/Ms+Dm4+BjFXDW2eq0WlVjC9lTHUfmLEdMJy1PpE8zskgmQYpLcuET1BYJPcnMka6h7OaxLsWboujfTwH5DwoOUm7F8m/vMC7510XBWNafHAixYICDspiKpixT6r7DEDGcNcGAmMx9hb5Kq+eql9YZpZzVDKQMSKnHBUpxARpKie0RPdKfo926HOAzHMYoymvZt2wmjE6lGH1fIS4E2Y7Y+ptWGDGsOSJjJFKP44xUpVizoEbU8XCdRnMGFGgXO+Qiz1+7oev5i2TJY8K7qYkhsnjHMZoaWK0kQ8CjGmbQySi5Z7KwnuYMeV2AzBjA5AxS2JsiGUsgBpKi545bwtmjETKOcZIfwuzPOxl5E15omVMEGO09BdwPc5gLGZVqFxL1YxprGSuNQ+tmpG9zIypGEMQY57UjaSzwZnqFHDaYcaWMmNTIruccz6qu9Hg9BTxaUHGaKcDXuwZjBFXVSSnhTGWULNkkT5CpRbBjKZ6fwiYsXF9VPQ8NHngU90jJdK1Q8aCowdmbCgzRrvVb2olrHpybq7MGIMMvv8rGKNGUJBxkgo1pQiodpy/tVbnqNQiuKpW/UWylzAWKWQM9pHCc7UiUa08Y9QKNqcNdYdZfFaGMgYWZBOJALrwDO+epqmFUIqpljHyCqfqqWBvEV65rvY6Ye8eT5HOYGxoybQwOHLHnM9Y7JHuMQ+U1YraE6ZX1I55UInFHJz7sbdoqVc8RGHE+SgRTnGWiEGHDuToNABXwIH7ebQU3SsYO1PGqF8LFjATGePmVPB8DGKMhOTruDhRjP3E181QymuTAQM61UTGAFfAP8kY9e3FXCBSTvG0CU3wOO2Jl89BxiARa/kaWQJFqYjncYYd0whj0vUas2P8PeCYB8iYVr6nHna4Hoz3oa1HvqxySIBLamiNSGV0qAJT1d1r2iqEX4oloYBLluymx0PxIk0Xgm4DY4sQY2019xnMGChjsq9IY7tQxJX4ivzw372AMW0Y0XRngFAQ+GEBqHa64DIHfiJxYyBK1boaqQaZlptIvKmvZozGIRuPmxWTOJ4UQjUEJGPizs7tfgdlTIzdE10p6nHKGNcImoIBvFris/ORYMKYqOwpY+LTqrc2DB1XLVj5Gty24eCrygE9MmAgTyA/wdiM3DOXXonaKmid2JZ498d072Cq9af9et01dx4kZBBjiqZhrF/AmCUzRpP5UHfXXApFBqTiTwzcKhmrdTaap5vFSuU50VkXUMvwUPe7CU072OxYUdVIDWgor15nFwKNsYRmbCZaaSZrPdYmvI0FZtEyY+0b5uBhLzEGhMk1Osh4xuCsSg08FCzeJSH+m+jaqRkrEchjA7SExpJkCXu7kEvC4hmgg3kYglBxFxVOYPZH5yLHKoXKcpTVf7OKdr5rz9jv/oSIUcZEdb8GGQsBxhY9eJRjx0M8GoBzJMqY5D7015Zutdf3Mi9B9jBqxw5MaLJaRLHQgWDp4CZCdViMatmDp+uXjpPF5ZAwVla3WfIjQ/psi8xYqxWj3pZk9cFsSwwxxupVfKEDcPQ9F2wFGYriXIDEPKSYGK6iU0jCEbQmBQlvgA0cUFJ3dMR1D9BuKX7FIIRmK2yTAkkh0WxLY7JYVnOKxXqzCap/p7x6lQMfvxcZO/HlFjB3SWgQ+5CMTiQMvxVTFtxxHBiUSh88kDEanOTlcWUQ91w/sYHQyCUOpcclgeJaxHqgFLH0cqUARP9+ucdOhy/9QJrJFrU7fJOmc6yZnUYD6iUKi2T5oR4TU6ETJOdDZOzEl6HJwDGFBaQkHSnO7kmTpaIKVvzpNprcr/WfZAtoZECUUpqr4H2whNZPmO5+kM7Kh+FEMX96oCPGa0hZvK860RcVB2kZ2zusehNn21h+Md3sXWwhQqg+WTtU+9TKtqHWpwNcNWBzo3NVnVCmWloP4oWoRMWvFAiMndhjYEUdBzRoxgb6dNJvZE0rsqRJI7QW2lBQdRHNmfBsrACoyWUP0yNOWw3pfe3dQ0NPlSyBUQ0cvKOe67j2bps+SEGMklJmIDYDWBg2P+YpRsNy63Kl6j13noyLui7KcKL6FxRugZERTxdj41A2pZtelBWzsixnA7I5UuCsheQrZizOqz8z6WaCkH062+3op1l0WK2AnP2WKNw00R3WONuNMjLiZpnfY4PT7nnrcbOFM1qxb/p+ls5mW78SxgjxvA52vePSCM/bbfGYHA3WkcXuG3ju/lDnelgo2YAZGJGXr0VnZEHLxk3fXRez2SDwTB25sika5daxWu0gaDbefq+OGZqG1xtDs7TtF2yBwqElNooi348MLJXOTpSjZaktqo4bl9pGbsdPvCn729k6sQy55psIT15WX3Bb2pk2VsaaZXAtDt5zb7baMzbqNzHMwO8JqqX/BU9A4Gf4zXJ+A72Gze/LvUsfIQkvXqjReLwZhWPArWDlNgDMendFfwvv79DP267ruVvA1G6ovzGDVCy/4dHfOQlr+2bL4oPrOo5r9XpW/a8bYtM/+dp16+ME9d/45CgMXcurRlWloKzqhw/CzR52oY+LZM0A+eFOilD0v6j6shqVBFGELKy0ljlCh8N1oW0j0jBaO4qy6VDyvYdZ6CNMvmlEznwGZlKy9+HhpUjlfPXuPat6ezdYj9XrBDcfyPk9z/NIOzF8z3WidapwZleD2XI5S+BY/s8Nyj7+73ODsE+qRtSIV5NpP8bLNOJ41J+uiNisJtXh/gijP51OyNF+Pz6QUJ09lZVHvxyvg8iP9gNwMec4TWebcoFRbmZpgQfmaFCwwyU+ynnOwzpybBvitpXyrKG+06JY69Xj59uNKvxUvWtcvVO/fqvJZLVaDWusVtMTa79Gk/qC+vTlA21ohXKxnLReOBoOlcHmRhD/518ajN3f+I4Q/V2A3PVgsE2yPXLd4w6UpyIhV4+vjkL24/8dGbv1xeqb3G4E7OPJYuCxKVF442PxuDH301/fHBg7MRO7dsRrK4hEm76hznlrBcxNgO169PTdkrn3N/59namNTEO2A33iZbfv2nUToJQ9/fJAncXH294Cc5mbeggFqIbKvNetgVD29OYNMWQ3rhIf3sP5Y40Gi9wT0cabwPe1+/Hx4c1DrRafb9vpwHNWRdgeJwXACsWbQ/zx6e6PD5WQPT5/uvEXwulIRWqsjlyApTi3iB8/+8ubCr/c/NdpcXwdWBVWo5Yx6/YdD4pv32Bcuhm/Gjh/o1jasw7al5DcGF4JYzihCvNSlwHLZU63C0zY7ftRZKlIBMW9M1v3Tn8k5Xawqhk7+4tYVwtab+PIFWiFp0fZv75B/zxMasZObUN2A6BLct2B8DWAbU/3X4ufSDB9FWas3gmHVij46VFj9FMfmeGJj23cGkavhDFtyAoRkKMn6WwzS7dzJzIRsFrithG/CsejBq1+02lNRYSMQEdgMcCNo2LsRBXtrSAeH/f3w9UAvjs+vcPa7aFi7NW8Vj+dhz0/QnXxmxNtxcVYrwSvw1U8YLQs0zSdlctXMwwlDF+H4/FvhFXH2I1h0jF2Y4jj12mfO3T4V+L/AVKOmYf9wEmnAAAAAElFTkSuQmCC;" vertex="1" parent="1">
          <mxGeometry x="600" y="326.33000000000004" width="163" height="43.67" as="geometry" />
        </mxCell>
        <mxCell id="-POQml4aIYqXx8IzOJX9-17" value="Data Provision&#xa;Agent" style="shape=image;verticalLabelPosition=bottom;verticalAlign=top;imageAspect=0;aspect=fixed;image=data:image/svg+xml,PHN2ZyB4bWxucz0iaHR0cDovL3d3dy53My5vcmcvMjAwMC9zdmciIGlkPSJkYXRhcHJvdmFnZW50IiB2aWV3Qm94PSIzLjk5OTk3MDY3NDUxNDc3MDUgMy45OTkzNDMzOTUyMzMxNTQzIDQ4LjAwMTE0ODIyMzg3Njk1IDQ4LjAxNDY1NjA2Njg5NDUzIiB3aWR0aD0iNDguMDAxMTQ4MjIzODc2OTUiIGhlaWdodD0iNDguMDE0NjU2MDY2ODk0NTMiPjxkZWZzPjxzdHlsZT4uY2xzLTF7ZmlsbDojMDUzYjcwO30uY2xzLTJ7ZmlsbDojMGE2ZWQxO308L3N0eWxlPjwvZGVmcz48dGl0bGU+ZGF0YXByb3ZhZ2VudDwvdGl0bGU+PHBhdGggY2xhc3M9ImNscy0xIiBkPSJNMjcuODYxLDIyLjMzMmE3LjIzNiw3LjIzNiwwLDAsMC0yLjYxMy0xLjgyQTIyLjQsMjIuNCwwLDAsMCwxNi40MywxOWEyMi40MDYsMjIuNDA2LDAsMCwwLTguODE3LDEuNTEyQTcuMjM2LDcuMjM2LDAsMCwwLDUsMjIuMzMyYTMuNzcyLDMuNzcyLDAsMCwwLTEsMi41MjFWNDYuMDgxQTMuNjM2LDMuNjM2LDAsMCwwLDUsNDguNmE3LjEwNyw3LjEwNywwLDAsMCwyLjYwNywxLjgyMUEyMS4xNTQsMjEuMTU0LDAsMCwwLDE2LjQzLDUyYTIyLjQsMjIuNCwwLDAsMCw4LjgxOC0xLjUxMiw3LjIzNiw3LjIzNiwwLDAsMCwyLjYxMy0xLjgyLDMuOTI3LDMuOTI3LDAsMCwwLDEtMi41MjFWMjQuODUzQTMuNzcyLDMuNzcyLDAsMCwwLDI3Ljg2MSwyMi4zMzJaTTE5LjIyNiw0OS4xNzRjLS44OTMuMDg1LTEuODE4LjE0NC0yLjguMTQ0YTI4LjUzOCwyOC41MzgsMCwwLDEtMy40MDYtLjIxMVYzMC41NzJhMzMuMjYsMzMuMjYsMCwwLDAsMy40MDYuMTY1Yy45OCwwLDEuOTA1LS4wNSwyLjgtLjEyNlptNy4xNjctMy4wMjdjMCwuNy0uOTE2LDEuNDYtMi40NTQsMi4wMzVhMTQuMjgsMTQuMjgsMCwwLDEtMi4yMjkuNjIyVjMwLjI2N2ExMy42MjgsMTMuNjI4LDAsMCwwLDQuNjgzLTEuNjQzWk0yMy45MzksMjYuOTg1YTIxLjU3LDIxLjU3LDAsMCwxLTcuNTA5LDEuMTM2LDIxLjUwOCwyMS41MDgsMCwwLDEtNy41LTEuMTM2Yy0xLjUyNC0uNjUtMi40LTEuNDE2LTIuNC0yLjF2LS4wMzFjMC0xLjMsMy41MjYtMy4xNzEsOS45LTMuMTcxLDYuNDE3LDAsOS45NjMsMS44NzYsOS45NjMsMy4yMDVDMjYuMzkzLDI1LjU3OCwyNS41LDI2LjM0NCwyMy45MzksMjYuOTg1WiIvPjxwYXRoIGNsYXNzPSJjbHMtMiIgZD0iTTUxLjYzMSwxMi4yNjVhMS4yMzcsMS4yMzcsMCwwLDAtLjk0My0uMzlINDkuNTM5YTIuODcsMi44NywwLDAsMC0uMjI2LS42MTVjLS4wOTQtLjE5Mi0uMTg0LS4zODMtLjI2Ni0uNTc0bC44Mi0uODIxYTEuMzM4LDEuMzM4LDAsMCwwLDAtMS44NDVMNDcuOTgsNi4xMzNhMS4yMjYsMS4yMjYsMCwwLDAtLjktLjM2OSwxLjI3OCwxLjI3OCwwLDAsMC0uOTQzLjM2OWwtLjgyMS44NjFhNS4zODksNS4zODksMCwwLDAtLjU3NC0uMjg3cS0uMjg3LS4xMjMtLjYxNS0uMjQ2VjUuMzEyYTEuMywxLjMsMCwwLDAtLjM2OS0uOTIyQTEuMjQ1LDEuMjQ1LDAsMCwwLDQyLjgxMiw0SDQwLjE4OGExLjI0OCwxLjI0OCwwLDAsMC0uOTQ0LjM5LDEuMywxLjMsMCwwLDAtLjM2OS45MjJWNi40NjFxLS4zMjcuMTIzLS42MTUuMjQ2YTUuNTg1LDUuNTg1LDAsMCwwLS41NzQuMjg3bC0uODIxLS44NjFhMS4yNzYsMS4yNzYsMCwwLDAtLjk0My0uMzY5LDEuMjI3LDEuMjI3LDAsMCwwLS45LjM2OUwzMy4xMzMsOC4wMmExLjMzOCwxLjMzOCwwLDAsMCwwLDEuODQ1bC44Mi44MjEtLjI0Ni41NzRxLS4xMjMuMjg3LS4yNDYuNjE1SDMyLjMxMmExLjI0LDEuMjQsMCwwLDAtLjk0My4zOSwxLjI5MywxLjI5MywwLDAsMC0uMzY5LjkyM3YyLjYyNGExLjI2MywxLjI2MywwLDAsMCwxLjMxMiwxLjMxM2gxLjE0OXEuMTIzLjMyNy4yNDYuNjE1bC4yNDYuNTc0LS44Mi44MjFhMS4zNjcsMS4zNjcsMCwwLDAtLjM2OS45NDMsMS4yMjcsMS4yMjcsMCwwLDAsLjM2OS45bDEuODg3LDEuODg3YTEuMjI3LDEuMjI3LDAsMCwwLC45LjM2OSwxLjI3NiwxLjI3NiwwLDAsMCwuOTQzLS4zNjlsLjgyMS0uODJjLjE5Mi4wODIuMzgzLjE3LjU3NC4yNjZhMy4wMjQsMy4wMjQsMCwwLDAsLjYxNS4yMjZ2MS4xNDlBMS4yNjMsMS4yNjMsMCwwLDAsNDAuMTg4LDI1aDIuNjI0YTEuMjYzLDEuMjYzLDAsMCwwLDEuMzEzLTEuMzEyVjIyLjUzOWEyLjk4MSwyLjk4MSwwLDAsMCwuNjE1LS4yMjZjLjE5Mi0uMS4zODMtLjE4NC41NzQtLjI2NmwuODIxLjgyYTEuMjc4LDEuMjc4LDAsMCwwLC45NDMuMzY5LDEuMjI2LDEuMjI2LDAsMCwwLC45LS4zNjlsMS44ODctMS44ODdhMS4yMjcsMS4yMjcsMCwwLDAsLjM2OS0uOSwxLjM2NywxLjM2NywwLDAsMC0uMzY5LS45NDNsLS44Mi0uODIxYy4wODItLjE5Mi4xNzItLjM4My4yNjYtLjU3NGEyLjkxLDIuOTEsMCwwLDAsLjIyNi0uNjE1aDEuMTQ5QTEuMjYzLDEuMjYzLDAsMCwwLDUyLDE1LjgxMlYxMy4xODhBMS4yOTMsMS4yOTMsMCwwLDAsNTEuNjMxLDEyLjI2NVptLTUuMjY2LDIuNTA3YTEuMzEyLDEuMzEyLDAsMCwxLTEuODU1LDBsLTEuNy0xLjdWMTkuNzVhMS4zMTIsMS4zMTIsMCwwLDEtMi42MjQsMFYxMy4wNzVsLTEuNywxLjdhMS4zMTIsMS4zMTIsMCwxLDEtMS44NTUtMS44NTZsMy45MzctMy45MzhhMS4zMTMsMS4zMTMsMCwwLDEsMS44NTYsMGwzLjkzNywzLjkzOGExLjMxMSwxLjMxMSwwLDAsMSwwLDEuODU2WiIvPjxwYXRoIGNsYXNzPSJjbHMtMiIgZD0iTTUwLjY4OCwzNS44NzVINDkuNTM5cS0uMTIzLS4zMjctLjI0Ni0uNjE1bC0uMjQ2LS41NzQuODItLjgyMWExLjM2NywxLjM2NywwLDAsMCwuMzY5LS45NDMsMS4yMjcsMS4yMjcsMCwwLDAtLjM2OS0uOUw0Ny45OCwzMC4xMzNhMS4yMjcsMS4yMjcsMCwwLDAtLjktLjM2OSwxLjI3NiwxLjI3NiwwLDAsMC0uOTQzLjM2OWwtLjgyMS44MmMtLjE5Mi0uMDgyLS4zODMtLjE3LS41NzQtLjI2NmEzLjAyNCwzLjAyNCwwLDAsMC0uNjE1LS4yMjZWMjkuMzEyQTEuMjYzLDEuMjYzLDAsMCwwLDQyLjgxMiwyOEg0MC4xODhhMS4yNjMsMS4yNjMsMCwwLDAtMS4zMTMsMS4zMTJ2MS4xNDlhMi45ODEsMi45ODEsMCwwLDAtLjYxNS4yMjZjLS4xOTIuMS0uMzgzLjE4NC0uNTc0LjI2NmwtLjgyMS0uODJhMS4yNzgsMS4yNzgsMCwwLDAtLjk0My0uMzY5LDEuMjI2LDEuMjI2LDAsMCwwLS45LjM2OUwzMy4xMzMsMzIuMDJhMS4yMjcsMS4yMjcsMCwwLDAtLjM2OS45LDEuMzY3LDEuMzY3LDAsMCwwLC4zNjkuOTQzbC44Mi44MjFjLS4wODIuMTkyLS4xNzIuMzgzLS4yNjYuNTc0YTIuOTEsMi45MSwwLDAsMC0uMjI2LjYxNUgzMi4zMTJBMS4yNjMsMS4yNjMsMCwwLDAsMzEsMzcuMTg4djIuNjI0YTEuMjkzLDEuMjkzLDAsMCwwLC4zNjkuOTIzLDEuMjM3LDEuMjM3LDAsMCwwLC45NDMuMzloMS4xNDlhMi44NywyLjg3LDAsMCwwLC4yMjYuNjE1Yy4wOTQuMTkyLjE4NC4zODMuMjY2LjU3NGwtLjgyLjgyMWExLjMzOCwxLjMzOCwwLDAsMCwwLDEuODQ1bDEuODg3LDEuODg3YTEuMjI2LDEuMjI2LDAsMCwwLC45LjM2OSwxLjI3OCwxLjI3OCwwLDAsMCwuOTQzLS4zNjlsLjgyMS0uODYxYTUuMzg5LDUuMzg5LDAsMCwwLC41NzQuMjg3cS4yODcuMTIzLjYxNS4yNDZ2MS4xNDlhMS4zLDEuMywwLDAsMCwuMzY5LjkyMiwxLjI0NSwxLjI0NSwwLDAsMCwuOTQ0LjM5aDIuNjI0YTEuMjQ4LDEuMjQ4LDAsMCwwLC45NDQtLjM5LDEuMywxLjMsMCwwLDAsLjM2OS0uOTIyVjQ2LjUzOXEuMzI3LS4xMjMuNjE1LS4yNDZhNS41ODUsNS41ODUsMCwwLDAsLjU3NC0uMjg3bC44MjEuODYxYTEuMjc2LDEuMjc2LDAsMCwwLC45NDMuMzY5LDEuMjI3LDEuMjI3LDAsMCwwLC45LS4zNjlsMS44ODctMS44ODdhMS4zMzgsMS4zMzgsMCwwLDAsMC0xLjg0NWwtLjgyLS44MjEuMjQ2LS41NzRxLjEyMy0uMjg3LjI0Ni0uNjE1aDEuMTQ5YTEuMjQsMS4yNCwwLDAsMCwuOTQzLS4zOUExLjI5MywxLjI5MywwLDAsMCw1MiwzOS44MTJWMzcuMTg4YTEuMjYzLDEuMjYzLDAsMCwwLTEuMzEyLTEuMzEzWm0tNC4zMjMsNC4yMDktMy45MzcsMy45MzhhMS4zMTMsMS4zMTMsMCwwLDEtMS44NTYsMGwtMy45MzctMy45MzhhMS4zMTIsMS4zMTIsMCwwLDEsMS44NTUtMS44NTZsMS43LDEuN1YzMy4yNWExLjMxMiwxLjMxMiwwLDEsMSwyLjYyNCwwdjYuNjc1bDEuNy0xLjdhMS4zMTIsMS4zMTIsMCwwLDEsMS44NTUsMS44NTZaIi8+PC9zdmc+;strokeColor=#66CC00;fontSize=12;fillColor=#E6D0DE;" vertex="1" parent="1">
          <mxGeometry x="151" y="590" width="48" height="48" as="geometry" />
        </mxCell>
        <mxCell id="-POQml4aIYqXx8IzOJX9-20" value="" style="whiteSpace=wrap;html=1;aspect=fixed;strokeColor=#000000;fontSize=12;fillColor=#FFFFFF;" vertex="1" parent="1">
          <mxGeometry x="310" y="320" width="230" height="230" as="geometry" />
        </mxCell>
        <mxCell id="-POQml4aIYqXx8IzOJX9-21" value="" style="shape=image;verticalLabelPosition=bottom;labelBackgroundColor=default;verticalAlign=top;aspect=fixed;imageAspect=0;image=data:image/png,iVBORw0KGgoAAAANSUhEUgAAAT4AAACfCAMAAABX0UX9AAAAilBMVEX///8jHyAAAAAJAAAeGRrT09NDQEEXEhMVDhAgHB29vb2cm5sOBgmtra10cnMbFhfm5ubt7e319fVIRkb4+PjY2NiVlJRbWVoMAAXPz8/i4uKPjo5UUlLExMSrqqonIySHhoaioaE2MzS3trc9OjsvLC1qaGl8e3tgXl+BgIBXVVV4d3dvbm5NS0zfs+WxAAAN9ElEQVR4nO1daXuyOhCVgAIWxd3iXq1Va/v//94VJZNJyLDoq9ZLzpc+RYR4SDL7UKsZGBgYGBgYGBgYGBg8Eb3hvDmvd589jJdEdFiyC9z2/NmDeTVstszzrQt8l3kfzx7QK2HyyRwLw2d+9OxBvQwWCnkXAqfPHtaLYMVS5MVgX88e2EtgqmfPsmzDXz42FHun+WfWbx66NHsn/oz8yMFviMSFZzMb9Jf4gPXs4f1xzNHkY96h1dxMl0wQyIz+l4k+qCwOayXHmqEr5uNTR/fXMYHJ5/jI1u0Df8zYbxkYBXyaMclTsOWT0v151tBeAbB22UY6PuSz0refNLKXALC0VD4Yc4HMOk8Z2EsAtr5gpHyysc3ml4uIUSQBsXZL+02DGtL62FD5pMc/eTeaHwlBX135BOizF08Z2UugDvQ1lU9A9Coi2QAB/AXuTvnkgyuExmuQATA62ED+YMvtXtZ7zsheAnuu3nkr6XgLFMLtcwb2GmjZMP3w7idMYYVWAwk94a9iQsGLhMsqpdEIDMhPqoO2J/gbX7SXSVuw5/S136qPxl4cUG8cmtUmsYPcpSHz9u0vi7nikFbuvoUsCM8MOycS25OHD/oPYfUuyLL80A2Rr95yx+kvLJiNT7Fc9lNl4bxMh8iBzbTW0vtlvnqaV2W3QifNB710J4GrOc9nb88Y+d9ARPHHUs6WCXmq6vCqECJNiks8pVLs9Wx6olbYNO5s7RQfgac6YWq1RqghjvNXZQE8YoE0sTym+hBO+JASEhQh7Xw+ftR/B70pY1yDdhk7aiIcA8Sew9h3+2vJhNJd6eUbY364kOH+6E0JCGqeqGpcVJXJTsiSVLSpakgMYMrMRYaw0FOGYtFXWfuLkThPU477C0Q2jJT4ItTGqkfUs+k7wNYoZ00iWh8xyL+LbPrWkJCgFH5AiluldZc8+vgkC1U3woaMNz0Y3c5TMyIy6QPPVqAGfrsFQsKDDse/HDCgt9k1bMbYOhkrx0NdQZn0Teg5BsTSqdAR4/iH44WhfZ101nhr4c7dLb/ZQ1XRTPqGZD5HEfp4QPke6ZYj8O9y+hrOM3aTTL2PTnqBeElAu63uSF9bGENPpa/+djErvFWksTqAJE+1hiOSWHTtu9GHDfHn0dc87R/cKPNOBm161+Dmha9uX0euEBIiO8bd6OthN8az6Fu4TPYihyzlAP3iZ7zLa1QUhqiZCgh3o28Khrh/Er1JTP+x9M19nRM5UNylGxFRl9TjPteaw1/6Fnejz+IjD61Whz++h9LXJjzwPpuh6fQh/C1+gPjbw/GsVLZ70QfaqLNGRx9IX28teFHhAk/RFu8xPjgNojUKs2dEzO9Fnz6/83H0dYIMB/yJp7M06O7VaIjNjq15c4SrqINVxm3uRd8i2VF8Hx99GH1dbZRI4W/ENNFJ77RTBw4+Mytd4170JbqWFUpeoEfRN/Cz2Yvl2WaZjiNpkG0g3Zs+t42PPoq+b13QW+VPCBbHI08Lskunr6BvuBkdjrtpi07xqgmB5h7x0fL0decfq91u9TEv42RYyLW8/jlrinlEMNdnfbLw3NNnYgEI+jYtjg/ZiRhr8XbgeV5w2iOOFwa7i+Tci4TvxP9+JTu3MztfKlkBevom/PuthWy2d6bb00bkua4XMNZoyUNbkE5MSWO3HBauNvXJsHm6mE6cnPXANz1/7znsEfS9MTuBnOWxCKXd1mPj2M8V8bMvZs88/hcG6pw/+Mygr2vD95d4m57spSCtw4LzQ1gnZ9Mz+IjXor0VjyTqp1gK2eF8z6aGWp/lRjm09Ik2AFLV/3CbUkTdeGeFMgA7oS81kCyjbQCpUI6F2TukfpDPxtQjwJDK8JW2BQv5F/jsl8/hTl9t+RLY+VuMjr5IsIe9EB9aZeBkQ95GXwO8WgHaJzpbndbrbQf59K2yYtx1JtXk42s011LDITYtkGCqoU+kG0kdO3bE9spaw1vo24vKW+TwHhJ6m7vOpw/X3KddTREanRocqq/An/tVzKGbpq8LG07wXYC9eIycgSvoE5fF5smQzM17n85y6EO393R715tQ9zTWbNxsrRkVjlyk6dtCSQQWOx8kexY4B4C+MBRZNv7pn9BrEPQJiYdTFjMSxixvyb9A0LfKs1ahMiYdXCuNFH1Q7h9iW3+I2XOCywQP1B95oS/6HY/3n9wJud6Px+PvZBqo9CEZhcnoY/HuXm5mq4KEou8Tlj0Ro0D9cW4O8Kj0wVbkWFhRRYnCDlu/Rd3BoBuNlsoaQwXuhdRmJKPwJoW13oAdm5PeoDds7RULlaIPkUOsQXTGrQFwhb4DFC1hMYiXboD0qNp8KZk7iL4iRpuQUZJ2OUDZTVj8dX+kDYSgTxQOkalRULF1e/aPTB9sRb785MRexNry96WfVI6+LlyVrfBJImHMCeXZMceznaBPzGi3rT1BjO0flJRL9G20YlA6vlIvsEN+i1L0CXVZeSTAqu+ohi7eggn6mnBKqo8B/BwY8s0l5Zi+SCsGa6ith7tPXwF5N0rRB+pyIF9U/H7N3oW0knz6qPBsgVOKAtGHtiJ5ZF2xpLMCpeXoAxnlKZGYNqfV1k0NYc8S9M2fM/ucAeghTNEm4Wnp74a2kvRBgr4IZJSrpl5D3NXR3Uw8rPy9jzL477D3WcsGbEXqUwNFVK+GitTqwvQ5v/wXhFvlmnTG0wU7Pjn/lOQVtkNaOsyS27mE5xWGU5g+C/6GqnQQMSZ9m2rRouVf6H235pXVseJx/r3pwgc3YZYKeC548WJx+uCRpTiCGBM1d/LoE1aH9zirQ9B3TJ0DAyZyPUQujThWjD7LTdHHtT5qqoPJerXNuxQ2r0aRKAdBH9FzDO1t1FSflKeP/w0b6sX4ryebDfCthKIPeaS0wiPH41Jvbq7wuFjbX+BP+fId6HNAbbFXysWAPion8TuHPmQi6fx9eLn9Q3+fD9qdlFYRA+gjDOzyi5dFkNekCr8pp+9AjHids3jhCtqTJE+iv6S8zbGfp0gtKlKbocfJuzJyOn31Auj6UUZt5iP1bVn2Qnz9u6ZHnugoF+uYQayjkYp1FEghxkbbnpgRXJZRarywE9IskPTBlHVn0sVEOYD+ZsNc+tRImzhPH2lLbntzpG3wDomW0oz4SehJreoEsNmUsnmhV4McCxX06JtMgT+Gpk+N87qHTX1Yb06X2gBKEJseI70zPSgV5wWVNZS+9gE/VJtYICzwcg4rUc6DLwuCirC5XMIwx0hlGdjZWQYNOssgpRlk0FfbwaOV4rvAqjY2AN1oS9IHAtsP8Tl9SgNQmMlK9BjTSStA2rtg85/luAAV0tIRfk2N8ECe6JLeZvimh9VXMOhDeVM8A3miM/NkMrqQJL/X3ljFMqwyvQoKfWJGeEhjh6JDP22IYg9mSfpqM5BVSH8V/X80qsNMOBcz6evaV+b3+bfl98GMwI12iB7cl4/QjlKWvp7wMCKVUjTrT3WW/0KtgbKztPKyS8+LS5Nd+r7bzJtv12eXijJMNPaZyPiR1+9G0qPK0iekjoPa6WGPsvTtbh8nbuQkufW0WR7JoHJzm+vbK3ObkT9SzAi0Qk+aJhA4V/So0vTV2vw3Bui8vpg4ng0JcpOVrJrl5giWz6z3kLC6NrNezAjkMjqiRxkytl+NRqtvlpr6pekT9QuIjQl6KCfdf70bvU1/pO4WhejT13X473eu6/jh48QpIo7EVOgFgScW9A30iXmNpJKsxDrxzUDd8wvofQAlH/ExVUUOjFAYfRNKsYyfDufvCvoEVSEKeozJfcvfNvJcBhLmP1JN2/gBNW3Cp4M0V7KhlrNV8vvOKJ4aDh2QsO+qTymyLPrVXCMTw2R786Y6M/AOFZVTvh1gK1ffUCtWBW+jDy0SJNRn+tnOVleklz+8nveTzwjsu+qsNT/JtSdqdukZJQoTwMcieSpW2jf8ra7Kzk/oe1g1eZdpzTS1odZJC/zuoWto6PMK1HXsoZMKNtPqn4oP6SSEm+Q1snBzLwPacUr0MmjBYclM603fL80JYoRB0vJJd40ReL3xZdfaXgaDAC4gPefmL7O5xBXJxuBP/zf03dZJozSi6W8y/Nno7u1hOosv63Kz7e76QqSCfVxU93aTnpe3odeZPLCVSLfTue3FzkW7CCkOMtNF6IJs+iAurKSPmR5WCa7qoCaSN8k0y4ogp38fSp1F/ftAQla9f1+Z7pF90z1SQm8l9y7VSAG1d+nP3je9Sy9QFX2XHdMzMLNzbjoLpzLQ9W32grQE6WcUn1f3bYLFu4YHZGCpuku3VM96gr/q9vzPemNCShXpePo3JlT3VYLl3tcxmJn3dWCssL/fD10Xs+Nqst9a7N2XyWtX931F8ruKnK+jHKrTzauBeVcRoI2yOfYXa21yRG/K0mtz9dHeid1j/Yq/KeuW97QZ4LcE4mVq3hJYDFDopCT4mHdUFgLp6jRvSC0A837em2DeDn0TzLvJb4K+c2qM3j2Ct/83iKJf1bqgU1oMABMyvwKSISvsDsgHqHdqnOcbYt+V9SIXgKitkQUsCF6czmSgAoKPSiUKVJJX/e1h2SAqUURMyGx9meijShSu4TVDYM93nzq6Pw/cwtIODq3mZmrhrpxGac7GDKWmxoVqNq5HrXTiRSFIJfkqMkoNDC7Y0PxV+Y3jhUEU2Cv9lA0orIjakJt7B1UEC21tCF2lYSBj8qk2Z2G+8TKXwGYrNaL3jJevJKLDMilEcY/GUrsGcSP6ef224hADAwMDAwMDAwMDAwODa/EfkFPK26vFX+4AAAAASUVORK5CYII=;" vertex="1" parent="1">
          <mxGeometry x="371" y="326.33" width="107.34" height="53.67" as="geometry" />
        </mxCell>
        <mxCell id="-POQml4aIYqXx8IzOJX9-23" value="" style="shape=image;verticalLabelPosition=bottom;verticalAlign=top;imageAspect=0;aspect=fixed;image=data:image/svg+xml,PHN2ZyB4bWxucz0iaHR0cDovL3d3dy53My5vcmcvMjAwMC9zdmciIHZpZXdCb3g9Ii0yLjk4NzM4NDg0NjE2NDc4NjdlLTcgMCAzOC42MDAwMDIyODg4MTgzNiA0OCIgd2lkdGg9IjM4LjYwMDAwMjI4ODgxODM2IiBoZWlnaHQ9IjQ4Ij48ZGVmcz48c3R5bGU+LmNscy0xe2ZpbGw6IzU5NTk1OTt9PC9zdHlsZT48L2RlZnM+PHRpdGxlPmRhdGEtc3RvcmU8L3RpdGxlPjxnIGlkPSJMYXllcl8yIiBkYXRhLW5hbWU9IkxheWVyIDIiPjxnIGlkPSJkYXRhLXN0b3JlIj48cGF0aCBjbGFzcz0iY2xzLTEiIGQ9Ik0xOS4zNSw0OHEtOC41MjIsMC0xMy44MzYtMi4yQTkuOTU5LDkuOTU5LDAsMCwxLDEuNSw0My4yLDUuMDEyLDUuMDEyLDAsMCwxLDAsMzkuN1Y4LjRBNS4zNjYsNS4zNjYsMCwwLDEsMS41LDQuOCw5Ljk4LDkuOTgsMCwwLDEsNS41MTQsMi4yUTEwLjgyNywwLDE5LjM1LDBxOC40MjMsMCwxMy43MzUsMi4yQTExLjUsMTEuNSwwLDAsMSwzNy4yLDQuOGE1LjU4Myw1LjU4MywwLDAsMSwxLjQsMy42VjM5LjdhNS40NjUsNS40NjUsMCwwLDEtMS40LDMuNSwxMS40ODcsMTEuNDg3LDAsMCwxLTQuMTEyLDIuNlEyNy43NzEsNDgsMTkuMzUsNDhaTTE5LjMsMy40cS03LjksMC0xMiwxLjdUMy4yLDguNGEyLjQsMi40LDAsMCwwLDEuMSwxLjcsMTAuNDE0LDEwLjQxNCwwLDAsMCwzLDEuNiwyOS4zNDIsMjkuMzQyLDAsMCwwLDUuNCwxLjI1LDQ1Ljk2Myw0NS45NjMsMCwwLDAsNi42LjQ1LDQ1Ljk4NCw0NS45ODQsMCwwLDAsNi42LS40NSwyOS4zODEsMjkuMzgxLDAsMCwwLDUuNC0xLjI1LDEwLjQ0MSwxMC40NDEsMCwwLDAsMy0xLjYsMi40MDYsMi40MDYsMCwwLDAsMS4xLTEuN3EwLTEuNi00LjEtMy4zVDE5LjMsMy40Wk0zLjIsMTMuNHY1LjUzQTIuMzA3LDIuMzA3LDAsMCwwLDQuMywyMC42YTEzLjUzNiwxMy41MzYsMCwwLDAsMywxLjY3NCwyOS4wMjYsMjkuMDI2LDAsMCwwLDUuNCwxLjI2N0E0NS4zNjksNDUuMzY5LDAsMCwwLDE5LjMsMjRhNDUuMzg5LDQ1LjM4OSwwLDAsMCw2LjYtLjQ1NiwyOS4wNjUsMjkuMDY1LDAsMCwwLDUuNC0xLjI2NywxMy41ODIsMTMuNTgyLDAsMCwwLDMtMS42NzQsMi4zMSwyLjMxLDAsMCwwLDEuMS0xLjY3M2wuMDkyLTUuNTNhMTMuMTgsMTMuMTgsMCwwLDEtMi42NTgsMS4zNSwyMi42NzUsMjIuNjc1LDAsMCwxLTMuMzU5Ljk1LDQzLjYyNCw0My42MjQsMCwwLDEtMTAuMTI4LDEuMSw0NS43LDQ1LjcsMCwwLDEtNS40MTctLjMsNDUuOTU0LDQ1Ljk1NCwwLDAsMS00LjcxMy0uOCwyMi42NCwyMi42NCwwLDAsMS0zLjM1OS0uOTVBMTMuMTI4LDEzLjEyOCwwLDAsMSwzLjIsMTMuNFptMCwxMC40djUuNGEyLjQsMi40LDAsMCwwLDEuMSwxLjcsMTIuMjc4LDEyLjI3OCwwLDAsMCwzLDEuNywyNi45ODgsMjYuOTg4LDAsMCwwLDUuNCwxLjIsNTEuNTU3LDUxLjU1NywwLDAsMCw2LjYuNCw1MS41OCw1MS41OCwwLDAsMCw2LjYtLjQsMjcuMDE5LDI3LjAxOSwwLDAsMCw1LjQtMS4yLDEyLjMxNiwxMi4zMTYsMCwwLDAsMy0xLjcsMi40MDYsMi40MDYsMCwwLDAsMS4xLTEuN2wuMDkyLTUuNGEyMS43ODEsMjEuNzgxLDAsMCwxLTYuNzcsMi41LDQ0LjUyOCw0NC41MjgsMCwwLDEtOS4zNzUuOSw0NS43LDQ1LjcsMCwwLDEtNS40MTctLjMsNDUuOTU0LDQ1Ljk1NCwwLDAsMS00LjcxMy0uOCwzMy42NzQsMzMuNjc0LDAsMCwxLTMuMzU5LTEuMDVBMTcuNjI1LDE3LjYyNSwwLDAsMSwzLjIsMjMuOFptMCwxMC40djUuNTI5QTIuMzA2LDIuMzA2LDAsMCwwLDQuMyw0MS40YTEzLjUzNiwxMy41MzYsMCwwLDAsMywxLjY3NCwyOS4wMjYsMjkuMDI2LDAsMCwwLDUuNCwxLjI2Nyw0NS4zNjksNDUuMzY5LDAsMCwwLDYuNi40NTYsNDUuMzg5LDQ1LjM4OSwwLDAsMCw2LjYtLjQ1NiwyOS4wNjUsMjkuMDY1LDAsMCwwLDUuNC0xLjI2NywxMy41ODIsMTMuNTgyLDAsMCwwLDMtMS42NzQsMi4zMDksMi4zMDksMCwwLDAsMS4xLTEuNjc0VjM0LjJhMTguODI2LDE4LjgyNiwwLDAsMS02LDIuNCwzOC4yODgsMzguMjg4LDAsMCwxLTQuNy43NXEtMi41LjI1MS01LjQuMjV0LTUuNC0uMjVhMzguMjI3LDM4LjIyNywwLDAsMS00LjctLjc1QTE4LjgwOCwxOC44MDgsMCwwLDEsMy4yLDM0LjJaIi8+PC9nPjwvZz48L3N2Zz4=;strokeColor=#000000;fontSize=12;fillColor=#FFFFFF;" vertex="1" parent="1">
          <mxGeometry x="662" y="411" width="39" height="48" as="geometry" />
        </mxCell>
        <mxCell id="-POQml4aIYqXx8IzOJX9-24" value="" style="shape=image;verticalLabelPosition=bottom;verticalAlign=top;imageAspect=0;aspect=fixed;image=data:image/svg+xml,PHN2ZyB4bWxucz0iaHR0cDovL3d3dy53My5vcmcvMjAwMC9zdmciIHZpZXdCb3g9Ii0wLjAwMTM2OTM1MjQ1MjQ1Njk1MTEgLTAuMDAyMjIyMzUwMTAwMDU1MzM3IDM2LjAwMzU5MzQ0NDgyNDIyIDQ4LjAwNDYzODY3MTg3NSIgd2lkdGg9IjM2LjAwMzU5MzQ0NDgyNDIyIiBoZWlnaHQ9IjQ4LjAwNDYzODY3MTg3NSI+PGRlZnM+PHN0eWxlPi5jbHMtMXtmaWxsOiM1OTU5NTk7fTwvc3R5bGU+PC9kZWZzPjx0aXRsZT5kb2N1bWVudDwvdGl0bGU+PGcgaWQ9IkxheWVyXzIiIGRhdGEtbmFtZT0iTGF5ZXIgMiI+PGcgaWQ9ImRvY3VtZW50Ij48cGF0aCBjbGFzcz0iY2xzLTEiIGQ9Ik0zMywwYTIuODg5LDIuODg5LDAsMCwxLDMsM1Y0NWEzLjAyMiwzLjAyMiwwLDAsMS0uOCwyLjE1N0EyLjc2NiwyLjc2NiwwLDAsMSwzMy4wOTQsNDhoLTMwYTMuMDc5LDMuMDc5LDAsMCwxLTIuMi0uODQzQTIuODM4LDIuODM4LDAsMCwxLDAsNDVWMTJMMTIsMFptLjA5NCw0NUwzMywzSDE1djlhMi44ODksMi44ODksMCwwLDEtMywzSDNWNDVaIi8+PC9nPjwvZz48L3N2Zz4=;strokeColor=#000000;fontSize=12;fillColor=#FFFFFF;" vertex="1" parent="1">
          <mxGeometry x="416" y="421" width="36" height="48" as="geometry" />
        </mxCell>
        <mxCell id="-POQml4aIYqXx8IzOJX9-25" value="" style="shape=image;verticalLabelPosition=bottom;verticalAlign=top;imageAspect=0;aspect=fixed;image=data:image/svg+xml,PHN2ZyB4bWxucz0iaHR0cDovL3d3dy53My5vcmcvMjAwMC9zdmciIHZpZXdCb3g9Ii0wLjAwMTM2OTM1MjQ1MjQ1Njk1MTEgLTAuMDAyMjIyMzUwMTAwMDU1MzM3IDM2LjAwMzU5MzQ0NDgyNDIyIDQ4LjAwNDYzODY3MTg3NSIgd2lkdGg9IjM2LjAwMzU5MzQ0NDgyNDIyIiBoZWlnaHQ9IjQ4LjAwNDYzODY3MTg3NSI+PGRlZnM+PHN0eWxlPi5jbHMtMXtmaWxsOiM1OTU5NTk7fTwvc3R5bGU+PC9kZWZzPjx0aXRsZT5kb2N1bWVudDwvdGl0bGU+PGcgaWQ9IkxheWVyXzIiIGRhdGEtbmFtZT0iTGF5ZXIgMiI+PGcgaWQ9ImRvY3VtZW50Ij48cGF0aCBjbGFzcz0iY2xzLTEiIGQ9Ik0zMywwYTIuODg5LDIuODg5LDAsMCwxLDMsM1Y0NWEzLjAyMiwzLjAyMiwwLDAsMS0uOCwyLjE1N0EyLjc2NiwyLjc2NiwwLDAsMSwzMy4wOTQsNDhoLTMwYTMuMDc5LDMuMDc5LDAsMCwxLTIuMi0uODQzQTIuODM4LDIuODM4LDAsMCwxLDAsNDVWMTJMMTIsMFptLjA5NCw0NUwzMywzSDE1djlhMi44ODksMi44ODksMCwwLDEtMywzSDNWNDVaIi8+PC9nPjwvZz48L3N2Zz4=;strokeColor=#000000;fontSize=12;fillColor=#FFFFFF;" vertex="1" parent="1">
          <mxGeometry x="397" y="389" width="36" height="48" as="geometry" />
        </mxCell>
        <mxCell id="-POQml4aIYqXx8IzOJX9-26" value="" style="shape=image;verticalLabelPosition=bottom;verticalAlign=top;imageAspect=0;aspect=fixed;image=data:image/svg+xml,PHN2ZyB4bWxucz0iaHR0cDovL3d3dy53My5vcmcvMjAwMC9zdmciIHZpZXdCb3g9Ii0wLjAwMTM2OTM1MjQ1MjQ1Njk1MTEgLTAuMDAyMjIyMzUwMTAwMDU1MzM3IDM2LjAwMzU5MzQ0NDgyNDIyIDQ4LjAwNDYzODY3MTg3NSIgd2lkdGg9IjM2LjAwMzU5MzQ0NDgyNDIyIiBoZWlnaHQ9IjQ4LjAwNDYzODY3MTg3NSI+PGRlZnM+PHN0eWxlPi5jbHMtMXtmaWxsOiM1OTU5NTk7fTwvc3R5bGU+PC9kZWZzPjx0aXRsZT5kb2N1bWVudDwvdGl0bGU+PGcgaWQ9IkxheWVyXzIiIGRhdGEtbmFtZT0iTGF5ZXIgMiI+PGcgaWQ9ImRvY3VtZW50Ij48cGF0aCBjbGFzcz0iY2xzLTEiIGQ9Ik0zMywwYTIuODg5LDIuODg5LDAsMCwxLDMsM1Y0NWEzLjAyMiwzLjAyMiwwLDAsMS0uOCwyLjE1N0EyLjc2NiwyLjc2NiwwLDAsMSwzMy4wOTQsNDhoLTMwYTMuMDc5LDMuMDc5LDAsMCwxLTIuMi0uODQzQTIuODM4LDIuODM4LDAsMCwxLDAsNDVWMTJMMTIsMFptLjA5NCw0NUwzMywzSDE1djlhMi44ODksMi44ODksMCwwLDEtMywzSDNWNDVaIi8+PC9nPjwvZz48L3N2Zz4=;strokeColor=#000000;fontSize=12;fillColor=#FFFFFF;" vertex="1" parent="1">
          <mxGeometry x="436" y="451" width="36" height="48" as="geometry" />
        </mxCell>
        <mxCell id="-POQml4aIYqXx8IzOJX9-27" value="TOPICS" style="text;strokeColor=none;fillColor=none;align=center;verticalAlign=middle;spacingLeft=4;spacingRight=4;overflow=hidden;points=[[0,0.5],[1,0.5]];portConstraint=eastwest;rotatable=0;whiteSpace=wrap;html=1;fontSize=12;" vertex="1" parent="1">
          <mxGeometry x="440" y="389" width="80" height="30" as="geometry" />
        </mxCell>
        <mxCell id="-POQml4aIYqXx8IzOJX9-28" value="" style="shape=image;verticalLabelPosition=bottom;verticalAlign=top;imageAspect=0;aspect=fixed;image=data:image/svg+xml,PHN2ZyB4bWxucz0iaHR0cDovL3d3dy53My5vcmcvMjAwMC9zdmciIHZpZXdCb3g9Ii0wLjAwMDYwNzI2ODgyNjU3MDM2MTkgLTAuMDEzMTI5Nzg1NjU2OTI5MDE2IDQyLjAxMzkxNjAxNTYyNSA2LjAyNjQzNjgwNTcyNTA5OCIgd2lkdGg9IjQyLjAxMzkxNjAxNTYyNSIgaGVpZ2h0PSI2LjAyNjQzNjgwNTcyNTA5OCI+PGRlZnM+PHN0eWxlPi5jbHMtMXtmaWxsOiM1OTU5NTk7fTwvc3R5bGU+PC9kZWZzPjx0aXRsZT5sZXNzPC90aXRsZT48ZyBpZD0iTGF5ZXJfMiIgZGF0YS1uYW1lPSJMYXllciAyIj48ZyBpZD0ibGVzcyI+PHBhdGggY2xhc3M9ImNscy0xIiBkPSJNNDIsMS41djNBMS4zMjYsMS4zMjYsMCwwLDEsNDAuNSw2SDEuNUExLjUwOSwxLjUwOSwwLDAsMSwuNDY5LDUuNTc4LDEuMzgsMS4zOCwwLDAsMSwwLDQuNXYtM0ExLjM4MSwxLjM4MSwwLDAsMSwuNDY5LjQyMiwxLjUwOSwxLjUwOSwwLDAsMSwxLjUsMGgzOUExLjMyNywxLjMyNywwLDAsMSw0MiwxLjVaIi8+PC9nPjwvZz48L3N2Zz4=;strokeColor=#000000;fontSize=12;fillColor=#FFFFFF;" vertex="1" parent="1">
          <mxGeometry x="240" y="426.5" width="119" height="17" as="geometry" />
        </mxCell>
        <mxCell id="-POQml4aIYqXx8IzOJX9-29" value="KAFKA Connect" style="text;strokeColor=none;fillColor=none;align=center;verticalAlign=middle;spacingLeft=4;spacingRight=4;overflow=hidden;points=[[0,0.5],[1,0.5]];portConstraint=eastwest;rotatable=0;whiteSpace=wrap;html=1;fontSize=12;fontColor=#FFFFFF;" vertex="1" parent="1">
          <mxGeometry x="230.5" y="420" width="140.5" height="30" as="geometry" />
        </mxCell>
        <mxCell id="-POQml4aIYqXx8IzOJX9-35" value="" style="endArrow=none;html=1;rounded=0;fontSize=12;fontColor=#FFFFFF;exitX=1;exitY=0.5;exitDx=0;exitDy=0;" edge="1" parent="1" source="-POQml4aIYqXx8IzOJX9-12">
          <mxGeometry width="50" height="50" relative="1" as="geometry">
            <mxPoint x="190" y="486" as="sourcePoint" />
            <mxPoint x="240" y="435" as="targetPoint" />
          </mxGeometry>
        </mxCell>
        <mxCell id="-POQml4aIYqXx8IzOJX9-36" value="" style="endArrow=none;html=1;rounded=0;fontSize=12;fontColor=#FFFFFF;exitX=1;exitY=0.5;exitDx=0;exitDy=0;" edge="1" parent="1">
          <mxGeometry width="50" height="50" relative="1" as="geometry">
            <mxPoint x="359" y="434.71" as="sourcePoint" />
            <mxPoint x="390" y="435" as="targetPoint" />
          </mxGeometry>
        </mxCell>
        <mxCell id="-POQml4aIYqXx8IzOJX9-38" value="" style="endArrow=none;dashed=1;html=1;dashPattern=1 3;strokeWidth=2;rounded=0;fontSize=12;fontColor=#FFFFFF;strokeColor=#3399FF;" edge="1" parent="1">
          <mxGeometry width="50" height="50" relative="1" as="geometry">
            <mxPoint x="60" y="720" as="sourcePoint" />
            <mxPoint x="60" y="550" as="targetPoint" />
          </mxGeometry>
        </mxCell>
        <mxCell id="-POQml4aIYqXx8IzOJX9-40" value="" style="endArrow=none;dashed=1;html=1;dashPattern=1 3;strokeWidth=2;rounded=0;fontSize=12;fontColor=#FFFFFF;strokeColor=#3399FF;" edge="1" parent="1">
          <mxGeometry width="50" height="50" relative="1" as="geometry">
            <mxPoint x="60" y="720" as="sourcePoint" />
            <mxPoint x="290" y="720" as="targetPoint" />
          </mxGeometry>
        </mxCell>
        <mxCell id="-POQml4aIYqXx8IzOJX9-42" value="&lt;font color=&quot;#000000&quot;&gt;El Data Provision Agent puede estar instalado en la misma máquina SAP o en otra máquina diferente&lt;/font&gt;" style="text;strokeColor=none;fillColor=none;align=left;verticalAlign=middle;spacingLeft=4;spacingRight=4;overflow=hidden;points=[[0,0.5],[1,0.5]];portConstraint=eastwest;rotatable=0;whiteSpace=wrap;html=1;fontSize=12;fontColor=#FFFFFF;fontStyle=2" vertex="1" parent="1">
          <mxGeometry x="60" y="740" width="220" height="60" as="geometry" />
        </mxCell>
        <mxCell id="-POQml4aIYqXx8IzOJX9-47" value="&lt;font color=&quot;#000000&quot;&gt;KAFKA Adapter&lt;/font&gt;" style="rounded=0;whiteSpace=wrap;html=1;strokeColor=#000000;fontSize=12;fontColor=#3333FF;fillColor=#E6E6E6;" vertex="1" parent="1">
          <mxGeometry x="216" y="605" width="74" height="40" as="geometry" />
        </mxCell>
        <mxCell id="-POQml4aIYqXx8IzOJX9-49" value="" style="edgeStyle=segmentEdgeStyle;endArrow=classic;html=1;rounded=0;strokeColor=#3399FF;fontSize=12;fontColor=#000000;exitX=1;exitY=0.5;exitDx=0;exitDy=0;" edge="1" parent="1" source="-POQml4aIYqXx8IzOJX9-47" target="-POQml4aIYqXx8IzOJX9-26">
          <mxGeometry width="50" height="50" relative="1" as="geometry">
            <mxPoint x="383" y="640" as="sourcePoint" />
            <mxPoint x="433" y="590" as="targetPoint" />
          </mxGeometry>
        </mxCell>
        <mxCell id="-POQml4aIYqXx8IzOJX9-50" value="consumer topics" style="edgeLabel;html=1;align=center;verticalAlign=middle;resizable=0;points=[];fontSize=12;fontColor=#000000;" vertex="1" connectable="0" parent="-POQml4aIYqXx8IzOJX9-49">
          <mxGeometry x="-0.0966" y="1" relative="1" as="geometry">
            <mxPoint as="offset" />
          </mxGeometry>
        </mxCell>
        <mxCell id="-POQml4aIYqXx8IzOJX9-54" value="" style="endArrow=none;html=1;rounded=0;fontSize=12;fontColor=#FFFFFF;exitX=1;exitY=0.5;exitDx=0;exitDy=0;" edge="1" parent="1">
          <mxGeometry width="50" height="50" relative="1" as="geometry">
            <mxPoint x="458.5" y="435" as="sourcePoint" />
            <mxPoint x="505.5" y="435" as="targetPoint" />
          </mxGeometry>
        </mxCell>
        <mxCell id="-POQml4aIYqXx8IzOJX9-55" value="" style="endArrow=none;html=1;rounded=0;fontSize=12;fontColor=#FFFFFF;exitX=1;exitY=0.5;exitDx=0;exitDy=0;" edge="1" parent="1">
          <mxGeometry width="50" height="50" relative="1" as="geometry">
            <mxPoint x="624.5000000000002" y="434.71000000000004" as="sourcePoint" />
            <mxPoint x="655.5" y="435" as="targetPoint" />
          </mxGeometry>
        </mxCell>
        <mxCell id="-POQml4aIYqXx8IzOJX9-56" value="" style="rounded=1;whiteSpace=wrap;html=1;strokeColor=#009900;fontSize=12;fontColor=#000000;fillColor=#009900;" vertex="1" parent="1">
          <mxGeometry x="510" y="419" width="110" height="30" as="geometry" />
        </mxCell>
        <mxCell id="-POQml4aIYqXx8IzOJX9-57" value="&lt;font color=&quot;#ffffff&quot; style=&quot;font-size: 11px;&quot;&gt;mongoDB Kafka connector&lt;/font&gt;" style="text;strokeColor=none;fillColor=none;align=center;verticalAlign=middle;spacingLeft=4;spacingRight=4;overflow=hidden;points=[[0,0.5],[1,0.5]];portConstraint=eastwest;rotatable=0;whiteSpace=wrap;html=1;fontSize=12;fontColor=#000000;" vertex="1" parent="1">
          <mxGeometry x="494.75" y="413.5" width="140.5" height="43" as="geometry" />
        </mxCell>
      </root>
    </mxGraphModel>
  </diagram>
</mxfile>
